<?xml version="1.0" encoding="UTF-8" standalone="no"?>
<svg
   id="Ebene_2"
   data-name="Ebene 2"
   viewBox="0 0 1024 1024"
   version="1.1"
   sodipodi:docname="Logo_edited.svg"
   inkscape:version="1.4.2 (f4327f4, 2025-05-13)"
   width="1024"
   height="1024"
   xmlns:inkscape="http://www.inkscape.org/namespaces/inkscape"
   xmlns:sodipodi="http://sodipodi.sourceforge.net/DTD/sodipodi-0.dtd"
   xmlns="http://www.w3.org/2000/svg"
   xmlns:svg="http://www.w3.org/2000/svg">
  <sodipodi:namedview
     id="namedview16"
     pagecolor="#ffffff"
     bordercolor="#000000"
     borderopacity="0.25"
     inkscape:showpageshadow="2"
     inkscape:pageopacity="0.0"
     inkscape:pagecheckerboard="0"
     inkscape:deskcolor="#d1d1d1"
     showguides="true"
     inkscape:zoom="1.0611979"
     inkscape:cx="545.60982"
     inkscape:cy="316.15215"
     inkscape:window-width="2560"
     inkscape:window-height="1377"
     inkscape:window-x="-8"
     inkscape:window-y="-8"
     inkscape:window-maximized="1"
     inkscape:current-layer="Ebene_2"
     inkscape:document-units="px"
     showgrid="true"
     inkscape:lockguides="false">
    <inkscape:grid
       id="grid4"
       units="pt"
       originx="0"
       originy="0"
       spacingx="1.3333333"
       spacingy="1.3333333"
       empcolor="#0099e5"
       empopacity="0.30196078"
       color="#0099e5"
       opacity="0.14902"
       empspacing="5"
       enabled="true"
       visible="true" />
    <sodipodi:guide
       position="0,1024"
       orientation="0,1024"
       id="guide4"
       inkscape:locked="false" />
    <sodipodi:guide
       position="1024,1024"
       orientation="1024,0"
       id="guide5"
       inkscape:locked="false" />
    <sodipodi:guide
       position="1024,0"
       orientation="0,-1024"
       id="guide6"
       inkscape:locked="false" />
    <sodipodi:guide
       position="0,0"
       orientation="-1024,0"
       id="guide7"
       inkscape:locked="false" />
    <sodipodi:guide
       position="512,1061.6933"
       orientation="-1,0"
       id="guide8"
       inkscape:locked="false"
       inkscape:label=""
       inkscape:color="rgb(0,134,229)" />
    <sodipodi:guide
       position="1208.0687,512"
       orientation="0,1"
       id="guide9"
       inkscape:locked="false"
       inkscape:label=""
       inkscape:color="rgb(0,134,229)" />
    <sodipodi:guide
       position="1074.2577,973"
       orientation="0,1"
       id="guide10"
       inkscape:locked="false"
       inkscape:label=""
       inkscape:color="rgb(0,134,229)" />
    <sodipodi:guide
       position="1089.335,51"
       orientation="0,1"
       id="guide11"
       inkscape:locked="false"
       inkscape:label=""
       inkscape:color="rgb(0,134,229)" />
    <sodipodi:guide
       position="502.41196,768"
       orientation="0,1"
       id="guide19"
       inkscape:locked="false"
       inkscape:label=""
       inkscape:color="rgb(0,134,229)" />
    <sodipodi:guide
       position="1344,664.00002"
       orientation="-1,0"
       id="guide38"
       inkscape:locked="false"
       inkscape:label=""
       inkscape:color="rgb(0,134,229)" />
    <sodipodi:guide
       position="-320,864.00001"
       orientation="-1,0"
       id="guide39"
       inkscape:locked="false"
       inkscape:label=""
       inkscape:color="rgb(0,134,229)" />
  </sodipodi:namedview>
  <defs
     id="defs1">
    <inkscape:perspective
       sodipodi:type="inkscape:persp3d"
       inkscape:vp_x="-319.99998 : 512 : 1"
       inkscape:vp_y="0 : 1000 : 0"
       inkscape:vp_z="1346.6666 : 512 : 1"
       inkscape:persp3d-origin="320.3121 : 109.45462 : 1"
       id="perspective21" />
    <style
       id="style1">
      .cls-1 {
        fill: #27476e;
      }

      .cls-2 {
        fill: #e9f6bf;
      }

      .cls-3 {
        fill: #fefefe;
      }
    </style>
  </defs>
  <path
     d="M 510.96484,1.7949219 89.494141,246.27344 V 778.82031 L 513.03516,1022.2051 934.50586,777.72656 V 245.17969 Z"
     style="display:inline;fill:#e9f6bf"
     id="path40" />
  <path
     sodipodi:type="star"
     style="display:none;fill:#e9f6bf;fill-opacity:1"
     id="Backdrop_bk"
     inkscape:flatsided="true"
     sodipodi:sides="6"
     sodipodi:cx="512.40686"
     sodipodi:cy="513.73956"
     sodipodi:r1="510.20688"
     sodipodi:r2="0"
     sodipodi:arg1="-0.52562906"
     sodipodi:arg2="-0.0020302778"
     inkscape:rounded="0"
     inkscape:randomized="0"
     d="M 953.74014,257.73956 954.776,767.94539 513.44272,1023.9454 71.073585,769.73956 70.037721,259.53373 511.371,3.5337359 Z"
     transform="translate(-0.40686035,-1.739563)" />
  <g
     id="Ebene_1-2"
     data-name="Ebene 1"
     inkscape:transform-center-x="78.205755"
     inkscape:transform-center-y="5.3322168"
     transform="matrix(1.3337286,0,0,1.3337286,74.597586,-0.53810659)">
    <path
       class="cls-2"
       d="M 338.4562,-0.04164555 C 634.61827,164.40307 654.83916,176.40344 655.92,177.76 c -0.55505,137.6458 1.25709,275.30614 0.37608,412.95013 C 573.80153,638.79502 343.86067,763.92256 342.05,767.99 h -25.5 C 235.45477,713.7307 0.09,590.45 0.09,590.45 L 0.083543,177.71216 c 0,0 67.769038,-41.63653 317.956457,-177.71216 z"
       id="path1"
       sodipodi:nodetypes="ccccccccc"
       style="display:none" />
    <path
       class="cls-1"
       d="M 620.64,198.77 620.90342,511.15924 327.95459,675.20338 36.147792,515.2508 36.041121,198.34477 327.95459,38.642124 C 421.94044,85.266939 620.64,198.77 620.64,198.77 Z M 52.54,216 v 288 l 275.41459,154.04297 c 0,0 185.14541,-101.87297 276.57541,-153.29297 V 216 L 439.56,306.4 430.62,294.09 595.52,202.14 328.15,54.72 61.54,202.14 168.76,261.41 159.00466,273.32254 52.54,216.01 Z"
       id="path2"
       sodipodi:nodetypes="ccccccccccccccccccccc"
       style="display:inline" />
    <path
       class="cls-1"
       d="m 327.95459,708.55534 266.21592,-147.1385 26.5824,-0.16659 L 327.95459,726.95474 36.041121,561.1943 l 27.9917,0.0429 c 89.158079,46.6661 176.461699,97.39648 263.921769,147.31817 z"
       id="path3"
       sodipodi:nodetypes="ccccccc"
       style="display:inline" />
    <path
       class="cls-1"
       d="m 95.54,401.5 c 4.71,-4.5 28.33,-3.78 36.04,-4.84 3.97,-0.55 6.09,-1.23 6.51,-5.49 1.29,-13.3 -6.97,-40.29 8.97,-46.53 3.25,-1.27 10.48,-1.23 11.65,-4.85 1.73,-5.34 -0.07,-21.91 0.34,-28.91 0.23,-3.88 0.8,-11.42 2.67,-14.58 1.73,-2.92 5.58,-5.06 8.58,-6.42 18.19,-8.21 39.86,-13.35 58.49,-21.01 2.45,-0.93 3.46,-2.67 3.76,-5.24 1.42,-12.28 -1.84,-28.41 0.16,-40.34 0.87,-5.15 4.3,-7.38 9.28,-7.97 4.65,-0.55 17.73,-0.65 21.57,1.52 2.97,1.68 3.97,5.3 4.26,8.49 1.02,11.59 -1.39,25.46 -0.04,36.79 0.19,1.61 0.5,3.11 1.97,4.03 1.82,1.14 18.76,2.66 22.43,3.07 11.11,1.25 23.57,1.36 34.4,3.1 8.23,1.32 13.84,5.88 14.71,14.54 0.76,7.57 -1.62,37.46 1.91,41.59 0.87,1.02 2.65,1.32 3.74,2.26 4.97,4.27 3.31,14.52 6.88,15.62 2.81,0.87 20.78,-2.34 25.23,-2.98 57.06,-8.23 115.68,-21.55 172.72,-27.53 11.83,-1.24 23.52,-3.56 21.21,12.96 -24.93,51.82 -53.73,103.48 -61.06,161.69 -1.33,2.9 -3.64,4.73 -6.82,5.18 -13.02,1.84 -32.19,-0.48 -45.65,-0.71 -43.79,-0.77 -87.54,-2.39 -131.25,-3.75 -67.08,-2.09 -134.22,-2.63 -201.45,-2.55 -6.36,-1.47 -10.74,-4.53 -13.48,-10.52 -8.54,-18.67 -12.15,-43.81 -20.05,-63.2 -0.25,-4.38 -1.15,-10.12 2.32,-13.44 z m 156.3,-117.88 c -2.36,0.92 -4,2.11 -4.34,4.71 -0.83,6.35 -0.64,24.23 0.04,30.79 0.85,8.19 5.54,4.95 10.84,4.85 16.15,-0.3 31.4,1.73 47.25,3.06 4.46,0.37 9,-0.83 13.49,-0.06 1.21,-0.18 3.28,-1.11 3.8,-2.21 0.69,-1.45 0.75,-25.84 0.39,-28.89 -0.55,-4.61 -3.64,-5.97 -7.9,-6.35 l -63.56,-5.89 z m -73.2,53.77 c 1.53,0.32 3.13,0.16 4.68,0.01 9.21,-0.87 29.24,-4.93 38.26,-7.49 4.07,-1.15 5.34,-1.88 5.74,-6.26 0.6,-6.65 0.85,-23.72 0,-30.07 -0.4,-2.98 -1.78,-3.76 -4.72,-3.19 l -42.21,16.33 c -0.78,0.71 -1.47,1.77 -1.69,2.81 -0.43,1.99 -0.76,7.23 -0.9,9.6 -0.15,2.62 -0.42,17.47 0.85,18.26 z m 146.15,9.11 c -3.65,-1.02 -7.36,-0.94 -11.25,-0.75 l -20.59,-1.53 -36.77,0.04 -95.06,16.69 c -1.81,0.73 -3.23,2.83 -3.53,4.72 -0.68,4.33 -0.58,18.69 -0.06,23.22 0.38,3.27 1.6,4.55 4.88,4.88 9.75,-0.48 19.5,-1.66 29.22,-2.31 24.8,-1.64 50.01,-2.66 75.03,-4.47 8.83,-0.64 19.1,-1.17 27.75,-2.25 5.54,-0.69 7.53,-2.19 11.27,-5.98 8.14,-8.25 14.92,-18.19 22.94,-26.59 1.72,-3.7 -0.85,-4.83 -3.82,-5.67 z"
       id="path6"
       style="display:inline" />
    <path
       class="cls-1"
       d="m 146.29,518.25 c 32.85,1.68 52.91,10.47 82.86,21.01 38.5,13.56 71.96,14.94 111.21,3.19 32.86,-9.84 59.28,-22.13 94.68,-24.2 26.70538,-2.78445 53.12246,2.483 79.5,6 0.56548,2.28824 -16.87829,11.81328 -17.05,11.85 -3.31,0.72 -17.5,-1.93 -22.3,-2.14 -71.76,-3.23 -125.43,36.29 -196.57,33.07 -45.60129,-6.50647 -84.62571,-28.6268 -133.29,-33.96 -0.94968,-0.23044 -25.17312,-12.18554 -24.55,-14.83 8.46,0.32 17.05,-0.43 25.5,0 z"
       id="path7"
       sodipodi:nodetypes="cccccccccccc"
       style="display:inline" />
    <path
       class="cls-1"
       d="M 283.96761,595.22709 C 299.39077,597.20418 343.44,585.12 378.4,572.24 c 25.42,-9.37 52.81,-13.24 79.89,-12.73 -1.4345,1.98264 -22.05942,15.36424 -26.24,16.87 -5.27,1.9 -14.23,2.32 -20.27,3.73 -35.48,8.29 -85.21537,27.82066 -97.82128,30.11264 -10.99674,1.9994 -22.99319,0.99971 -34.98963,-1.9994 C 275.4264,607.33756 250.02,592.64 250.02,592.64 l -2.47,-2.03 c 0,0 24.61098,3.1036 36.41761,4.61709 z"
       id="path8"
       sodipodi:nodetypes="sccccssccs"
       style="display:inline" />
  </g>
  <g
     sodipodi:type="inkscape:box3d"
     id="g32"
     style="display:none;fill:#ff0000;fill-opacity:0.497653"
     inkscape:perspectiveID="#perspective21"
     inkscape:corner0="0.45525482 : 0.76578093 : 0 : 1"
     inkscape:corner7="-0.23039412 : 0.098807633 : 0.67889154 : 1">
    <path
       sodipodi:type="inkscape:box3dside"
       id="path38"
       style="fill:#ff0000;fill-opacity:0.497653;fill-rule:evenodd;stroke:none;stroke-linejoin:round"
       inkscape:box3dsidetype="11"
       d="M 510.2139,341.7982 903.19717,261.23286 V 721.6916 L 510.2139,654.32283 Z"
       points="903.19717,261.23286 903.19717,721.6916 510.2139,654.32283 510.2139,341.7982 " />
    <path
       sodipodi:type="inkscape:box3dside"
       id="path33"
       style="fill:#ff0000;fill-opacity:0.497653;fill-rule:evenodd;stroke:none;stroke-linejoin:round"
       inkscape:box3dsidetype="6"
       d="M 119.99999,262.39729 V 720.71791 L 510.2139,654.32283 V 341.7982 Z"
       points="119.99999,720.71791 510.2139,654.32283 510.2139,341.7982 119.99999,262.39729 " />
    <path
       sodipodi:type="inkscape:box3dside"
       id="path37"
       style="fill:#ff0000;fill-opacity:0.497653;fill-rule:evenodd;stroke:none;stroke-linejoin:round"
       inkscape:box3dsidetype="13"
       d="M 119.99999,720.71791 512,906.66661 903.19717,721.6916 510.2139,654.32283 Z"
       points="512,906.66661 903.19717,721.6916 510.2139,654.32283 119.99999,720.71791 " />
    <path
       sodipodi:type="inkscape:box3dside"
       id="path34"
       style="fill:#ff0000;fill-opacity:0.497653;fill-rule:evenodd;stroke:none;stroke-linejoin:round"
       inkscape:box3dsidetype="5"
       d="M 119.99999,262.39729 512,40.023941 903.19717,261.23286 510.2139,341.7982 Z"
       points="512,40.023941 903.19717,261.23286 510.2139,341.7982 119.99999,262.39729 " />
    <path
       sodipodi:type="inkscape:box3dside"
       id="path36"
       style="fill:#ff0000;fill-opacity:0.497653;fill-rule:evenodd;stroke:none;stroke-linejoin:round"
       inkscape:box3dsidetype="14"
       d="M 512,40.023941 V 906.66661 L 903.19717,721.6916 V 261.23286 Z"
       points="512,906.66661 903.19717,721.6916 903.19717,261.23286 512,40.023941 " />
    <path
       sodipodi:type="inkscape:box3dside"
       id="path35"
       style="fill:#ff0000;fill-opacity:0.497653;fill-rule:evenodd;stroke:none;stroke-linejoin:round"
       inkscape:box3dsidetype="3"
       d="M 119.99999,262.39729 512,40.023941 V 906.66661 L 119.99999,720.71791 Z"
       points="512,40.023941 512,906.66661 119.99999,720.71791 119.99999,262.39729 " />
  </g>
</svg>
