<?xml version="1.0" encoding="UTF-8"?>
<svg id="Ebene_2" data-name="Ebene 2" xmlns="http://www.w3.org/2000/svg" viewBox="0 0 656.32 768">
  <defs>
    <style>
      .cls-1 {
        fill: #27476e;
      }

      .cls-2 {
        fill: #e9f6bf;
      }

      .cls-3 {
        fill: #fefefe;
      }
    </style>
  </defs>
  <g id="Ebene_1-2" data-name="Ebene 1">
    <path class="cls-2" d="M337.54,0h2.25l4.72,4.7c4.28,2.22,8.85,4.05,13.09,6.34,70.59,38.06,140.45,77.53,210.05,116.39,26.05,14.54,52.11,29.07,77.61,43.73,3.82,2.19,7.72,2.91,10.66,6.6l.41,407.65-1.2,5.55-26.06,15.19c-23.24,11.83-45.83,26.18-68.91,37.44-2.63,1.28-3.46,4.15-3.7,4.32-.66.45-2.74-.14-3.89.1-.55.11-.58,1.25-1.46,1.7-11.88,6.08-22.84,12.9-34.51,19.49-54.98,31.05-112.31,61.83-167.29,94.04-2.04,1.2-5.88,1.65-7.26,4.75h-25.5c-1.59-4.4-7.67-5.46-11.36-7.59-29.81-17.24-57.97-32.52-87.47-49.16-53.14-29.97-106.42-58.84-159.09-87.7-15.86-8.69-31.7-17.95-47.13-26.53-3.83-2.13-8.43-3.28-11.41-6.56L0,182.59c-.08-3.33.7-5.85,3.52-7.73,3.52-2.35,9.86-5.65,13.85-7.9,25.45-14.35,51.28-28.31,76.31-42.36C166.74,83.57,238.35,43.39,312.19,4.44l5.85-4.44h19.5ZM326.84,36.91c-96.5,51.69-191.59,105.88-287.31,158.97-2.2,1.39-3.69,3.5-3.53,6.22v307.57c-.26,4.09,2.64,5.39,5.53,7.22,35.8,22.61,78.3,42.7,115.76,63.49,52.74,29.28,104.8,60.38,157.99,88.76,4.91,2.62,11.67,7.64,17.03,6.26,70.53-40.24,141.91-79.02,212.73-118.76,21.9-12.29,45.48-24.46,66.75-37.5,3.73-2.29,9.54-4.38,9.28-9.47l-.43-310.89c-1.03-2.46-24.15-15.01-28.35-17.4-83.17-47.24-168.74-96.21-253.5-140.25-3.39-1.76-8.19-4.96-11.95-4.21ZM36.04,562.5c.09,3.57,3.43,4.4,6.25,6.13,43.1,26.51,92.13,49.99,136.76,74.74,49.46,27.43,98.52,55.59,147.97,83.02,5.87,1.5,14.61-4.85,20.03-7.76,66.79-35.98,132.31-74.87,198.49-112.01,21.33-11.97,43.83-23.24,64.76-35.74,2.28-1.36,9.89-5.49,10.41-7.61.2-.83-.51-1.51-.78-1.51h-24.75c-.92,0-2.32.28-3.3.39-85.97,48.21-172.21,95.95-257.57,145.24l-4.59,1.35c-85.51-46.94-170.34-95.27-255.67-142.61-2.12-1.05-7.61-4.05-9.5-4.37l-28.05-.76c-.76-.09-.47.98-.45,1.51Z"/>
    <path class="cls-1" d="M326.84,36.91c3.76-.75,8.56,2.45,11.95,4.21,84.76,44.04,170.33,93.01,253.5,140.25,4.2,2.39,27.32,14.94,28.35,17.4l.43,310.89c.26,5.09-5.55,7.18-9.28,9.47-21.27,13.04-44.85,25.21-66.75,37.5-70.82,39.74-142.2,78.52-212.73,118.76-5.36,1.38-12.12-3.65-17.03-6.26-53.19-28.38-105.25-59.48-157.99-88.76-37.45-20.79-79.96-40.88-115.76-63.49-2.9-1.83-5.79-3.13-5.53-7.22V202.09c-.16-2.71,1.33-4.82,3.53-6.22,95.72-53.08,190.81-107.27,287.31-158.97ZM52.54,216v288c17.26,11.36,36.39,19.88,54.5,29.87,22.3,12.31,44.23,25.37,66.49,37.76,52.05,28.97,104.24,57.68,156.25,86.7,91.53-51.16,183.32-102.16,274.75-153.58V216l-164.97,90.4c-.61-.27-8.15-9.24-8.66-10.15-.35-.65-.67-1.49-.28-2.16l164.9-91.95c-12.48-7.77-25.57-15.06-38.49-22.26-72.18-40.23-144.28-81.74-217.5-120-2.32-1.21-9.29-5.17-11.38-5.16-1.86,0-3.73,1.37-5.38,2.17-18.81,9.16-38.16,21.6-56.74,31.76-66.1,36.13-133.08,71.51-198.26,109.24-.99.57-6.23,3.56-6.23,4.25l107.22,59.27c1.19.97.58.65.03,1.48-.64.96-9.86,10.22-10.53,10.52l-105.72-57.4Z"/>
    <path class="cls-1" d="M64.54,561.75c1.89.32,7.38,3.32,9.5,4.37,85.32,47.34,170.16,95.66,255.67,142.61l4.59-1.35c85.36-49.29,171.6-97.03,257.57-145.24.98-.12,2.38-.39,3.3-.39h24.75c.27,0,.98.69.78,1.51-.51,2.13-8.13,6.25-10.41,7.61-20.93,12.51-43.43,23.77-64.76,35.74-66.18,37.14-131.7,76.03-198.49,112.01-5.41,2.92-14.15,9.26-20.03,7.76-49.45-27.43-98.52-55.6-147.97-83.02-44.63-24.75-93.66-48.23-136.76-74.74-2.82-1.73-6.15-2.56-6.25-6.13,1.25-.86,2.66-.73,4.09-.78,6.07-.21,19.04-.89,24.41.03Z"/>
    <path class="cls-1" d="M64.54,561.75c-5.37-.92-18.34-.24-24.41-.03-1.43.05-2.84-.07-4.09.78-.01-.53-.31-1.61.45-1.51l28.05.76Z"/>
    <path class="cls-2" d="M52.54,216l105.72,57.4c.68-.31,9.9-9.57,10.53-10.52.55-.83,1.17-.52-.03-1.48l-107.22-59.27c0-.69,5.24-3.68,6.23-4.25,65.18-37.73,132.16-73.11,198.26-109.24,18.58-10.16,37.93-22.6,56.74-31.76,1.64-.8,3.51-2.17,5.38-2.17,2.09,0,9.06,3.95,11.38,5.16,73.22,38.26,145.32,79.77,217.5,120,12.92,7.2,26.01,14.49,38.49,22.26l-164.9,91.95c-.39.66-.07,1.51.28,2.16.5.92,8.05,9.88,8.66,10.15l164.97-90.4v288.75c-91.43,51.42-183.22,102.43-274.75,153.58-52.02-29.02-104.2-57.74-156.25-86.7-22.26-12.39-44.19-25.45-66.49-37.76-18.11-9.99-37.24-18.51-54.5-29.87V216ZM95.54,401.5c-3.47,3.32-2.57,9.07-2.32,13.44,7.9,19.39,11.51,44.53,20.05,63.2,2.74,5.99,7.12,9.05,13.48,10.52,67.23-.08,134.37.47,201.45,2.55,43.71,1.36,87.46,2.98,131.25,3.75,13.46.24,32.63,2.56,45.65.71,3.17-.45,5.49-2.28,6.82-5.18,7.33-58.21,36.13-109.87,61.06-161.69,2.3-16.53-9.39-14.2-21.21-12.96-57.04,5.98-115.66,19.3-172.72,27.53-4.45.64-22.42,3.85-25.23,2.98-3.56-1.1-1.91-11.35-6.88-15.62-1.09-.94-2.87-1.24-3.74-2.26-3.53-4.13-1.15-34.02-1.91-41.59-.87-8.67-6.47-13.23-14.71-14.54-10.83-1.73-23.3-1.85-34.4-3.1-3.67-.41-20.61-1.93-22.43-3.07-1.47-.92-1.78-2.43-1.97-4.03-1.34-11.34,1.07-25.21.04-36.79-.28-3.19-1.29-6.81-4.26-8.49-3.83-2.17-16.92-2.07-21.57-1.52-4.98.59-8.41,2.82-9.28,7.97-2.01,11.93,1.26,28.06-.16,40.34-.3,2.57-1.31,4.31-3.76,5.24-18.64,7.65-40.3,12.8-58.49,21.01-3,1.36-6.85,3.5-8.58,6.42-1.88,3.16-2.45,10.7-2.67,14.58-.41,7,1.39,23.57-.34,28.91-1.17,3.62-8.4,3.58-11.65,4.85-15.94,6.24-7.68,33.23-8.97,46.53-.41,4.26-2.53,4.95-6.51,5.49-7.71,1.06-31.33.33-36.04,4.84ZM120.79,518.25c-.42,1.74.33,1.23.95,1.72,2.64,2.07,20.87,12.45,23.6,13.11,5.55,1.35,13,1.54,18.97,2.78,40.91,8.43,70.87,29.21,114.32,31.18,71.13,3.23,124.8-36.3,196.57-33.07,4.8.22,18.99,2.86,22.3,2.14,1.59-.35,14.11-8.58,16.1-10.14.61-.48,1.38.02.95-1.71l-45-6h-34.5c-35.39,2.07-61.82,14.36-94.68,24.2-39.26,11.76-72.72,10.37-111.21-3.19-29.95-10.55-50.01-19.33-82.86-21.01l1.87-.75c-7.75.08-15.51-.09-23.26,0-1.27.01-3.34-.48-4.11.76ZM283.54,593.25c-4.2-.4-8.39-.48-12.75-.75-7.77-.47-15.56-1.64-23.25-1.88.68.87,1.55,1.44,2.47,2.03,8.29,5.25,23.81,10.71,30.52,16.35.1.08-.24,1.09.1,1.37,1.27,1.05,29.38-.21,32.9-.62,38.24-4.4,62.76-21.34,98.24-29.63,6.04-1.41,14.99-1.83,20.27-3.73,4.47-1.61,16.16-9.77,20.93-12.82,1.77-1.13,4.08-2.35,5.31-4.05-27.08-.51-54.46,3.36-79.89,12.73-34.96,12.88-55.06,24.76-94.86,21.01Z"/>
    <path class="cls-1" d="M95.54,401.5c4.71-4.5,28.33-3.78,36.04-4.84,3.97-.55,6.09-1.23,6.51-5.49,1.29-13.3-6.97-40.29,8.97-46.53,3.25-1.27,10.48-1.23,11.65-4.85,1.73-5.34-.07-21.91.34-28.91.23-3.88.8-11.42,2.67-14.58,1.73-2.92,5.58-5.06,8.58-6.42,18.19-8.21,39.86-13.35,58.49-21.01,2.45-.93,3.46-2.67,3.76-5.24,1.42-12.28-1.84-28.41.16-40.34.87-5.15,4.3-7.38,9.28-7.97,4.65-.55,17.73-.65,21.57,1.52,2.97,1.68,3.97,5.3,4.26,8.49,1.02,11.59-1.39,25.46-.04,36.79.19,1.61.5,3.11,1.97,4.03,1.82,1.14,18.76,2.66,22.43,3.07,11.11,1.25,23.57,1.36,34.4,3.1,8.23,1.32,13.84,5.88,14.71,14.54.76,7.57-1.62,37.46,1.91,41.59.87,1.02,2.65,1.32,3.74,2.26,4.97,4.27,3.31,14.52,6.88,15.62,2.81.87,20.78-2.34,25.23-2.98,57.06-8.23,115.68-21.55,172.72-27.53,11.83-1.24,23.52-3.56,21.21,12.96-24.93,51.82-53.73,103.48-61.06,161.69-1.33,2.9-3.64,4.73-6.82,5.18-13.02,1.84-32.19-.48-45.65-.71-43.79-.77-87.54-2.39-131.25-3.75-67.08-2.09-134.22-2.63-201.45-2.55-6.36-1.47-10.74-4.53-13.48-10.52-8.54-18.67-12.15-43.81-20.05-63.2-.25-4.38-1.15-10.12,2.32-13.44ZM251.84,283.62c-2.36.92-4,2.11-4.34,4.71-.83,6.35-.64,24.23.04,30.79.85,8.19,5.54,4.95,10.84,4.85,16.15-.3,31.4,1.73,47.25,3.06,4.46.37,9-.83,13.49-.06,1.21-.18,3.28-1.11,3.8-2.21.69-1.45.75-25.84.39-28.89-.55-4.61-3.64-5.97-7.9-6.35l-63.56-5.89ZM178.64,337.39c1.53.32,3.13.16,4.68.01,9.21-.87,29.24-4.93,38.26-7.49,4.07-1.15,5.34-1.88,5.74-6.26.6-6.65.85-23.72,0-30.07-.4-2.98-1.78-3.76-4.72-3.19l-42.21,16.33c-.78.71-1.47,1.77-1.69,2.81-.43,1.99-.76,7.23-.9,9.6-.15,2.62-.42,17.47.85,18.26ZM324.79,346.5c-3.65-1.02-7.36-.94-11.25-.75l-20.59-1.53-36.77.04-95.06,16.69c-1.81.73-3.23,2.83-3.53,4.72-.68,4.33-.58,18.69-.06,23.22.38,3.27,1.6,4.55,4.88,4.88,9.75-.48,19.5-1.66,29.22-2.31,24.8-1.64,50.01-2.66,75.03-4.47,8.83-.64,19.1-1.17,27.75-2.25,5.54-.69,7.53-2.19,11.27-5.98,8.14-8.25,14.92-18.19,22.94-26.59,1.72-3.7-.85-4.83-3.82-5.67Z"/>
    <path class="cls-1" d="M146.29,518.25c32.85,1.68,52.91,10.47,82.86,21.01,38.5,13.56,71.96,14.94,111.21,3.19,32.86-9.84,59.28-22.13,94.68-24.2,11.28-.66,23.16.49,34.5,0l45,6c.43,1.74-.34,1.24-.95,1.71-1.99,1.56-14.51,9.8-16.1,10.14-3.31.72-17.5-1.93-22.3-2.14-71.76-3.23-125.43,36.29-196.57,33.07-43.45-1.97-73.42-22.75-114.32-31.18-5.98-1.23-13.42-1.43-18.97-2.78-2.72-.66-20.95-11.05-23.6-13.11-.62-.48-1.36.02-.95-1.72,8.46.32,17.05-.43,25.5,0Z"/>
    <path class="cls-1" d="M283.54,593.25c39.8,3.75,59.9-8.13,94.86-21.01,25.42-9.37,52.81-13.24,79.89-12.73-1.23,1.7-3.54,2.92-5.31,4.05-4.77,3.05-16.46,11.21-20.93,12.82-5.27,1.9-14.23,2.32-20.27,3.73-35.48,8.29-60,25.23-98.24,29.63l-33-.75c-6.71-5.65-22.23-11.11-30.52-16.35-.92-.58-1.79-1.15-2.47-2.03,7.69.24,15.48,1.4,23.25,1.88,3.65,1.7,8.68.32,12.75.75Z"/>
    <path class="cls-1" d="M469.54,518.25c-11.34.49-23.22-.66-34.5,0h34.5Z"/>
    <path class="cls-1" d="M313.54,609.75c-3.52.4-31.62,1.67-32.9.62-.34-.28,0-1.28-.1-1.37l33,.75Z"/>
    <path class="cls-3" d="M120.79,518.25c.78-1.24,2.85-.75,4.11-.76,7.75-.08,15.51.09,23.26,0l-1.87.75c-8.45-.43-17.04.32-25.5,0Z"/>
    <path class="cls-1" d="M283.54,593.25c-4.07-.43-9.1.95-12.75-.75,4.36.27,8.55.35,12.75.75Z"/>
    <path class="cls-2" d="M313.54,345.75c-.84.04-2.44-.52-2.25.74h13.5c2.98.84,5.54,1.98,3.82,5.67-8.02,8.4-14.8,18.34-22.94,26.59-3.74,3.79-5.73,5.29-11.27,5.98-8.65,1.08-18.92,1.61-27.75,2.25-25.02,1.82-50.23,2.83-75.03,4.47-9.72.64-19.47,1.83-29.22,2.31-3.28-.34-4.5-1.62-4.88-4.88-.53-4.53-.63-18.89.06-23.22.3-1.89,1.72-3.99,3.53-4.72l95.06-16.69,36.77-.04,20.59,1.53Z"/>
    <path class="cls-2" d="M251.84,283.62l63.56,5.89c4.27.38,7.36,1.73,7.9,6.35.36,3.05.3,27.44-.39,28.89-.52,1.1-2.59,2.04-3.8,2.21-4.48-.76-9.03.44-13.49.06-15.85-1.33-31.1-3.36-47.25-3.06-5.3.1-9.99,3.35-10.84-4.85-.68-6.56-.87-24.44-.04-30.79.34-2.61,1.99-3.79,4.34-4.71Z"/>
    <path class="cls-2" d="M178.64,337.39c-1.27-.79-1-15.64-.85-18.26.14-2.37.47-7.61.9-9.6.23-1.04.91-2.1,1.69-2.81l42.21-16.33c2.94-.57,4.32.21,4.72,3.19.85,6.35.6,23.42,0,30.07-.4,4.38-1.67,5.1-5.74,6.26-9.02,2.56-29.04,6.62-38.26,7.49-1.55.15-3.15.31-4.68-.01Z"/>
    <path class="cls-3" d="M313.54,345.75c3.89-.19,7.6-.27,11.25.75h-13.5c-.2-1.27,1.41-.71,2.25-.75Z"/>
  </g>
</svg>